{
  "accessors": [
    {
      "bufferView": 2,
      "componentType": 5126,
      "count": 42,
      "max": [
        0.41364085674285889,
        0.41364085674285889,
        83.003211975097656
      ],
      "min": [
        -0.41364085674285889,
        -0.41364085674285889,
        0
      ],
      "type": "VEC3"
    },
    {
      "bufferView": 2,
      "byteOffset": 504,
      "componentType": 5126,
      "count": 42,
      "max": [
        0.99999994039535522,
        0.99999994039535522,
        0.68862640857696533
      ],
      "min": [
        -1,
        -0.99999994039535522,
        -1
      ],
      "type": "VEC3"
    },
    {
      "bufferView": 3,
      "componentType": 5126,
      "count": 42,
      "max": [
        1,
        1,
        0.00012071923265466467,
        1
      ],
      "min": [
        -1,
        -1,
        -0.00016466245870105922,
        1
      ],
      "type": "VEC4"
    },
    {
      "bufferView": 1,
      "componentType": 5126,
      "count": 42,
      "max": [
        0.875,
        1
      ],
      "min": [
        -0.125,
        0
      ],
      "type": "VEC2"
    },
    {
      "bufferView": 0,
      "componentType": 5125,
      "count": 132,
      "max": [
        41
      ],
      "min": [
        0
      ],
      "type": "SCALAR"
    },
    {
      "bufferView": 2,
      "byteOffset": 1008,
      "componentType": 5126,
      "count": 80,
      "max": [
        2.384035587310791,
        0.52300608158111572,
        91.442123413085938
      ],
      "min": [
        -2.3840351104736328,
        -0.54132544994354248,
        79.109283447265625
      ],
      "type": "VEC3"
    },
    {
      "bufferView": 2,
      "byteOffset": 1968,
      "componentType": 5126,
      "count": 80,
      "max": [
        0.99789094924926758,
        0.99996227025985718,
        0.99988919496536255
      ],
      "min": [
        -0.99789100885391235,
        -0.9999699592590332,
        -0.99701541662216187
      ],
      "type": "VEC3"
    },
    {
      "bufferView": 3,
      "byteOffset": 672,
      "componentType": 5126,
      "count": 80,
      "max": [
        1,
        0.49797248840332031,
        0.99789893627166748,
        1
      ],
      "min": [
        -1,
        -0.62216305732727051,
        -0.99789893627166748,
        -1
      ],
      "type": "VEC4"
    },
    {
      "bufferView": 1,
      "byteOffset": 336,
      "componentType": 5126,
      "count": 80,
      "max": [
        1,
        1
      ],
      "min": [
        -5.9604644775390625e-08,
        0
      ],
      "type": "VEC2"
    },
    {
      "bufferView": 0,
      "byteOffset": 528,
      "componentType": 5125,
      "count": 150,
      "max": [
        79
      ],
      "min": [
        0
      ],
      "type": "SCALAR"
    },
    {
      "bufferView": 2,
      "byteOffset": 2928,
      "componentType": 5126,
      "count": 164,
      "max": [
        4.3480997085571289,
        4.3480997085571289,
        16.438621520996094
      ],
      "min": [
        -4.3480997085571289,
        -4.3480997085571289,
        2.731874942779541
      ],
      "type": "VEC3"
    },
    {
      "bufferView": 2,
      "byteOffset": 4896,
      "componentType": 5126,
      "count": 164,
      "max": [
        1,
        1,
        0.65476369857788086
      ],
      "min": [
        -1,
        -1,
        -0.84138143062591553
      ],
      "type": "VEC3"
    },
    {
      "bufferView": 3,
      "byteOffset": 1952,
      "componentType": 5126,
      "count": 164,
      "max": [
        1,
        1,
        6.0836910051875748e-06,
        1
      ],
      "min": [
        -1,
        -1,
        -0.35492011904716492,
        1
      ],
      "type": "VEC4"
    },
    {
      "bufferView": 1,
      "byteOffset": 976,
      "componentType": 5126,
      "count": 164,
      "max": [
        2.5059998035430908,
        127.90090942382812
      ],
      "min": [
        -1.506000280380249,
        -51.833606719970703
      ],
      "type": "VEC2"
    },
    {
      "bufferView": 0,
      "byteOffset": 1128,
      "componentType": 5125,
      "count": 384,
      "max": [
        163
      ],
      "min": [
        0
      ],
      "type": "SCALAR"
    },
    {
      "bufferView": 2,
      "byteOffset": 6864,
      "componentType": 5126,
      "count": 24,
      "max": [
        35.456348419189453,
        11.692071914672852,
        3.2733254432678223
      ],
      "min": [
        -35.456348419189453,
        -11.692071914672852,
        0
      ],
      "type": "VEC3"
    },
    {
      "bufferView": 2,
      "byteOffset": 7152,
      "componentType": 5126,
      "count": 24,
      "max": [
        0.69369328022003174,
        0.94608044624328613,
        1
      ],
      "min": [
        -0.69369328022003174,
        -0.94608044624328613,
        -1
      ],
      "type": "VEC3"
    },
    {
      "bufferView": 3,
      "byteOffset": 4576,
      "componentType": 5126,
      "count": 24,
      "max": [
        1,
        1,
        0,
        1
      ],
      "min": [
        -1,
        -1,
        0,
        1
      ],
      "type": "VEC4"
    },
    {
      "bufferView": 1,
      "byteOffset": 2288,
      "componentType": 5126,
      "count": 24,
      "max": [
        1,
        1
      ],
      "min": [
        0,
        0
      ],
      "type": "VEC2"
    },
    {
      "bufferView": 0,
      "byteOffset": 2664,
      "componentType": 5125,
      "count": 36,
      "max": [
        23
      ],
      "min": [
        0
      ],
      "type": "SCALAR"
    },
    {
      "bufferView": 2,
      "byteOffset": 7440,
      "componentType": 5126,
      "count": 280,
      "max": [
        1.9338713884353638,
        3.8532767295837402,
        28.54454231262207
      ],
      "min": [
        -31.704677581787109,
        -3.6731853485107422,
        2.2136054039001465
      ],
      "type": "VEC3"
    },
    {
      "bufferView": 2,
      "byteOffset": 10800,
      "componentType": 5126,
      "count": 280,
      "max": [
        0.99999874830245972,
        1,
        1
      ],
      "min": [
        -0.99999874830245972,
        -1,
        -1
      ],
      "type": "VEC3"
    },
    {
      "bufferView": 3,
      "byteOffset": 4960,
      "componentType": 5126,
      "count": 280,
      "max": [
        1,
        1,
        0.087156131863594055,
        1
      ],
      "min": [
        -1,
        -1,
        -0.08715636283159256,
        -1
      ],
      "type": "VEC4"
    },
    {
      "bufferView": 1,
      "byteOffset": 2480,
      "componentType": 5126,
      "count": 280,
      "max": [
        1,
        1
      ],
      "min": [
        0,
        0
      ],
      "type": "VEC2"
    },
    {
      "bufferView": 0,
      "byteOffset": 2808,
      "componentType": 5125,
      "count": 456,
      "max": [
        279
      ],
      "min": [
        0
      ],
      "type": "SCALAR"
    },
    {
      "bufferView": 2,
      "byteOffset": 14160,
      "componentType": 5126,
      "count": 84,
      "max": [
        0.15000000596046448,
        1.384857177734375,
        0.71364057064056396
      ],
      "min": [
        -0.15000000596046448,
        -1,
        -0.52899062633514404
      ],
      "type": "VEC3"
    },
    {
      "bufferView": 2,
      "byteOffset": 15168,
      "componentType": 5126,
      "count": 84,
      "max": [
        1,
        1,
        1
      ],
      "min": [
        -1,
        -1,
        -1
      ],
      "type": "VEC3"
    },
    {
      "bufferView": 3,
      "byteOffset": 9440,
      "componentType": 5126,
      "count": 84,
      "max": [
        1,
        1,
        0.27996402978897095,
        1
      ],
      "min": [
        -1,
        -1,
        -0.26836511492729187,
        1
      ],
      "type": "VEC4"
    },
    {
      "bufferView": 1,
      "byteOffset": 4720,
      "componentType": 5126,
      "count": 84,
      "max": [
        1,
        1
      ],
      "min": [
        0,
        0
      ],
      "type": "VEC2"
    },
    {
      "bufferView": 0,
      "byteOffset": 4632,
      "componentType": 5125,
      "count": 156,
      "max": [
        83
      ],
      "min": [
        0
      ],
      "type": "SCALAR"
    },
    {
      "bufferView": 2,
      "byteOffset": 16176,
      "componentType": 5126,
      "count": 84,
      "max": [
        0.15000000596046448,
        1.384857177734375,
        0.71364057064056396
      ],
      "min": [
        -0.15000000596046448,
        -1,
        -0.52899062633514404
      ],
      "type": "VEC3"
    },
    {
      "bufferView": 2,
      "byteOffset": 17184,
      "componentType": 5126,
      "count": 84,
      "max": [
        1,
        1,
        1
      ],
      "min": [
        -1,
        -1,
        -1
      ],
      "type": "VEC3"
    },
    {
      "bufferView": 3,
      "byteOffset": 10784,
      "componentType": 5126,
      "count": 84,
      "max": [
        1,
        1,
        0.27996402978897095,
        1
      ],
      "min": [
        -1,
        -1,
        -0.26836511492729187,
        1
      ],
      "type": "VEC4"
    },
    {
      "bufferView": 1,
      "byteOffset": 5392,
      "componentType": 5126,
      "count": 84,
      "max": [
        1,
        1
      ],
      "min": [
        0,
        0
      ],
      "type": "VEC2"
    },
    {
      "bufferView": 0,
      "byteOffset": 5256,
      "componentType": 5125,
      "count": 156,
      "max": [
        83
      ],
      "min": [
        0
      ],
      "type": "SCALAR"
    },
    {
      "bufferView": 2,
      "byteOffset": 18192,
      "componentType": 5126,
      "count": 72,
      "max": [
        1.6944597959518433,
        1.5247998237609863,
        49.720985412597656
      ],
      "min": [
        -13.673061370849609,
        -1.5247998237609863,
        -49.720996856689453
      ],
      "type": "VEC3"
    },
    {
      "bufferView": 2,
      "byteOffset": 19056,
      "componentType": 5126,
      "count": 72,
      "max": [
        1,
        0.95483684539794922,
        0.1193503811955452
      ],
      "min": [
        -1,
        -0.95483684539794922,
        -0.1193503811955452
      ],
      "type": "VEC3"
    },
    {
      "bufferView": 3,
      "byteOffset": 12128,
      "componentType": 5126,
      "count": 72,
      "max": [
        0.86603087186813354,
        1,
        1,
        1
      ],
      "min": [
        -0.95175719261169434,
        -0.81359767913818359,
        -0.99903279542922974,
        -1
      ],
      "type": "VEC4"
    },
    {
      "bufferView": 1,
      "byteOffset": 6064,
      "componentType": 5126,
      "count": 72,
      "max": [
        0.94999998807907104,
        1
      ],
      "min": [
        -0.25,
        0
      ],
      "type": "VEC2"
    },
    {
      "bufferView": 0,
      "byteOffset": 5880,
      "componentType": 5125,
      "count": 276,
      "max": [
        71
      ],
      "min": [
        0
      ],
      "type": "SCALAR"
    },
    {
      "bufferView": 2,
      "byteOffset": 19920,
      "componentType": 5126,
      "count": 359,
      "max": [
        6.1781039237976074,
        1.8686463832855225,
        56.428600311279297
      ],
      "min": [
        -15.809381484985352,
        -1.8686463832855225,
        -56.428600311279297
      ],
      "type": "VEC3"
    },
    {
      "bufferView": 2,
      "byteOffset": 24228,
      "componentType": 5126,
      "count": 359,
      "max": [
        0.99344974756240845,
        0.98998528718948364,
        0.99943327903747559
      ],
      "min": [
        -0.99879574775695801,
        -0.98998528718948364,
        -1
      ],
      "type": "VEC3"
    },
    {
      "bufferView": 3,
      "byteOffset": 13280,
      "componentType": 5126,
      "count": 359,
      "max": [
        0,
        0,
        0,
        1
      ],
      "min": [
        0,
        0,
        0,
        1
      ],
      "type": "VEC4"
    },
    {
      "bufferView": 1,
      "byteOffset": 6640,
      "componentType": 5126,
      "count": 359,
      "max": [
        0.94999998807907104,
        1
      ],
      "min": [
        -0.25,
        0
      ],
      "type": "VEC2"
    },
    {
      "bufferView": 0,
      "byteOffset": 6984,
      "componentType": 5125,
      "count": 1083,
      "max": [
        358
      ],
      "min": [
        0
      ],
      "type": "SCALAR"
    },
    {
      "bufferView": 2,
      "byteOffset": 28536,
      "componentType": 5126,
      "count": 220,
      "max": [
        3.4410607814788818,
        1.2275761365890503,
        49.720985412597656
      ],
      "min": [
        -14.928196907043457,
        -1.2275761365890503,
        -47.670860290527344
      ],
      "type": "VEC3"
    },
    {
      "bufferView": 2,
      "byteOffset": 31176,
      "componentType": 5126,
      "count": 220,
      "max": [
        0.99999332427978516,
        0.98005455732345581,
        1
      ],
      "min": [
        -0.99992579221725464,
        -0.98005455732345581,
        -0.99943327903747559
      ],
      "type": "VEC3"
    },
    {
      "bufferView": 3,
      "byteOffset": 19024,
      "componentType": 5126,
      "count": 220,
      "max": [
        0,
        0,
        0,
        1
      ],
      "min": [
        0,
        0,
        0,
        1
      ],
      "type": "VEC4"
    },
    {
      "bufferView": 1,
      "byteOffset": 9512,
      "componentType": 5126,
      "count": 220,
      "max": [
        1.6666667461395264,
        1
      ],
      "min": [
        -0.25,
        0
      ],
      "type": "VEC2"
    },
    {
      "bufferView": 0,
      "byteOffset": 11316,
      "componentType": 5125,
      "count": 915,
      "max": [
        219
      ],
      "min": [
        0
      ],
      "type": "SCALAR"
    }
  ],
  "asset": {
    "extras": {
      "author": "Mr.MaroonMoon (https://sketchfab.com/MaroonTune)",
      "license": "CC-BY-4.0 (http://creativecommons.org/licenses/by/4.0/)",
      "source": "https://sketchfab.com/3d-models/avian-bow-5ef592bfa8d94d409ad6d66d40d62bae",
      "title": "Avian Bow"
    },
    "generator": "Sketchfab-6.87.0",
    "version": "2.0"
  },
  "bufferViews": [
    {
      "buffer": 0,
      "byteLength": 14976,
      "byteOffset": 0,
      "name": "floatBufferViews",
      "target": 34963
    },
    {
      "buffer": 0,
      "byteLength": 11272,
      "byteOffset": 14976,
      "byteStride": 8,
      "name": "floatBufferViews",
      "target": 34962
    },
    {
      "buffer": 0,
      "byteLength": 33816,
      "byteOffset": 26248,
      "byteStride": 12,
      "name": "floatBufferViews",
      "target": 34962
    },
    {
      "buffer": 0,
      "byteLength": 22544,
      "byteOffset": 60064,
      "byteStride": 16,
      "name": "floatBufferViews",
      "target": 34962
    }
  ],
  "buffers": [
    {
      "byteLength": 82608,
      "uri": "scene.bin"
    }
  ],
  "materials": [
    {
      "doubleSided": true,
      "emissiveFactor": [
        0,
        0,
        0
      ],
      "name": "Material_15",
      "pbrMetallicRoughness": {
        "baseColorFactor": [
          0.17647099999999999,
          0.094117699999999985,
          0.035294100000000016,
          1
        ],
        "metallicFactor": 0.65415396341463417,
        "roughnessFactor": 0.74561737804878048
      }
    },
    {
      "doubleSided": true,
      "emissiveFactor": [
        0,
        0,
        0
      ],
      "name": "Material_14",
      "pbrMetallicRoughness": {
        "baseColorFactor": [
          0.98039199999999982,
          0.49803900000000018,
          0.09411770000000004,
          1
        ],
        "metallicFactor": 0.28830030487804881,
        "roughnessFactor": 0
      }
    },
    {
      "doubleSided": true,
      "emissiveFactor": [
        0,
        0,
        0
      ],
      "name": "Material_38",
      "pbrMetallicRoughness": {
        "baseColorFactor": [
          0.584314,
          0.80784299999999998,
          1,
          1
        ],
        "metallicFactor": 0,
        "roughnessFactor": 0.90842690169999996
      }
    },
    {
      "doubleSided": true,
      "emissiveFactor": [
        0,
        0,
        0
      ],
      "name": "Material_39",
      "pbrMetallicRoughness": {
        "baseColorFactor": [
          0.121569,
          0.121569,
          0.121569,
          1
        ],
        "metallicFactor": 1,
        "roughnessFactor": 0.46169969512195119
      }
    },
    {
      "doubleSided": true,
      "emissiveFactor": [
        0,
        0,
        0
      ],
      "name": "Material_13",
      "pbrMetallicRoughness": {
        "baseColorFactor": [
          0.26274500000000001,
          0.074509800000000001,
          0,
          1
        ],
        "metallicFactor": 0,
        "roughnessFactor": 0.64195884146341475
      }
    }
  ],
  "meshes": [
    {
      "name": "Cylinder005_Material #15_0",
      "primitives": [
        {
          "attributes": {
            "NORMAL": 1,
            "POSITION": 0,
            "TANGENT": 2,
            "TEXCOORD_0": 3
          },
          "indices": 4,
          "material": 0,
          "mode": 4
        }
      ]
    },
    {
      "name": "Cylinder005_Material #14_0",
      "primitives": [
        {
          "attributes": {
            "NORMAL": 6,
            "POSITION": 5,
            "TANGENT": 7,
            "TEXCOORD_0": 8
          },
          "indices": 9,
          "material": 1,
          "mode": 4
        }
      ]
    },
    {
      "name": "Cylinder005_Material #38_0",
      "primitives": [
        {
          "attributes": {
            "NORMAL": 11,
            "POSITION": 10,
            "TANGENT": 12,
            "TEXCOORD_0": 13
          },
          "indices": 14,
          "material": 2,
          "mode": 4
        }
      ]
    },
    {
      "name": "Box001_Material #15_0",
      "primitives": [
        {
          "attributes": {
            "NORMAL": 16,
            "POSITION": 15,
            "TANGENT": 17,
            "TEXCOORD_0": 18
          },
          "indices": 19,
          "material": 0,
          "mode": 4
        }
      ]
    },
    {
      "name": "Box003_Material #39_0",
      "primitives": [
        {
          "attributes": {
            "NORMAL": 21,
            "POSITION": 20,
            "TANGENT": 22,
            "TEXCOORD_0": 23
          },
          "indices": 24,
          "material": 3,
          "mode": 4
        }
      ]
    },
    {
      "name": "Box004_Material #39_0",
      "primitives": [
        {
          "attributes": {
            "NORMAL": 26,
            "POSITION": 25,
            "TANGENT": 27,
            "TEXCOORD_0": 28
          },
          "indices": 29,
          "material": 3,
          "mode": 4
        }
      ]
    },
    {
      "name": "Box005_Material #39_0",
      "primitives": [
        {
          "attributes": {
            "NORMAL": 31,
            "POSITION": 30,
            "TANGENT": 32,
            "TEXCOORD_0": 33
          },
          "indices": 34,
          "material": 3,
          "mode": 4
        }
      ]
    },
    {
      "name": "Cylinder002_Material #13_0",
      "primitives": [
        {
          "attributes": {
            "NORMAL": 36,
            "POSITION": 35,
            "TANGENT": 37,
            "TEXCOORD_0": 38
          },
          "indices": 39,
          "material": 4,
          "mode": 4
        }
      ]
    },
    {
      "name": "Cylinder002_Material #14_0",
      "primitives": [
        {
          "attributes": {
            "NORMAL": 41,
            "POSITION": 40,
            "TANGENT": 42,
            "TEXCOORD_0": 43
          },
          "indices": 44,
          "material": 1,
          "mode": 4
        }
      ]
    },
    {
      "name": "Cylinder002_Material #15_0",
      "primitives": [
        {
          "attributes": {
            "NORMAL": 46,
            "POSITION": 45,
            "TANGENT": 47,
            "TEXCOORD_0": 48
          },
          "indices": 49,
          "material": 0,
          "mode": 4
        }
      ]
    }
  ],
  "nodes": [
    {
      "children": [
        1
      ],
      "name": "RootNode (gltf orientation matrix)",
      "rotation": [
        -0.70710678118654746,
        -0,
        -0,
        0.70710678118654757
      ]
    },
    {
      "children": [
        2
      ],
      "name": "RootNode (model correction matrix)"
    },
    {
      "children": [
        3
      ],
      "matrix": [
        1,
        0,
        0,
        0,
        0,
        0,
        1,
        0,
        0,
        -1,
        0,
        0,
        0,
        0,
        0,
        1
      ],
      "name": "e4fc4e4136474bd8a74bcfacd0303278.fbx"
    },
    {
      "children": [
        4
      ],
      "name": "RootNode"
    },
    {
      "children": [
        5,
        10,
        12,
        14,
        16,
        18
      ],
      "matrix": [
        2.5399999618530273,
        0,
        0,
        0,
        0,
        5.6399328803925005e-16,
        -2.5399999618530273,
        0,
        0,
        2.5399999618530273,
        5.6399328803925005e-16,
        0,
        0,
        39.701438903808594,
        0,
        1
      ],
      "name": "Group001"
    },
    {
      "children": [
        6
      ],
      "matrix": [
        7.5497901264043321e-08,
        0,
        -0.99999999999999711,
        0,
        0,
        1,
        0,
        0,
        0.99999999999999711,
        0,
        7.5497901264043321e-08,
        0,
        0,
        -3.92718505859375,
        11.282386779785156,
        1
      ],
      "name": "Cylinder005"
    },
    {
      "children": [
        7,
        8,
        9
      ],
      "matrix": [
        1,
        0,
        -0,
        0,
        0,
        1,
        0,
        0,
        0,
        0,
        1,
        0,
        -1.8161661046178779e-06,
        0,
        -45.721061706542969,
        1
      ],
      "name": ""
    },
    {
      "mesh": 0,
      "name": "Cylinder005_Material #15_0"
    },
    {
      "mesh": 1,
      "name": "Cylinder005_Material #14_0"
    },
    {
      "mesh": 2,
      "name": "Cylinder005_Material #38_0"
    },
    {
      "children": [
        11
      ],
      "matrix": [
        1,
        0,
        0,
        0,
        0,
        1,
        0,
        0,
        0,
        0,
        1,
        0,
        0,
        0,
        -15.630487442016602,
        1
      ],
      "name": "Box001"
    },
    {
      "mesh": 3,
      "name": "Box001_Material #15_0"
    },
    {
      "children": [
        13
      ],
      "matrix": [
        -1,
        -0,
        -0,
        -0,
        -0,
        0.99999999999999645,
        -8.742277669594045e-08,
        -0,
        -0,
        8.742277669594045e-08,
        0.99999999999999645,
        -0,
        -14.843116760253906,
        -2.1469211578369141,
        -16.388992309570312,
        1
      ],
      "name": "Box003"
    },
    {
      "mesh": 4,
      "name": "Box003_Material #39_0"
    },
    {
      "children": [
        15
      ],
      "matrix": [
        6.4148740768432617,
        0,
        0,
        0,
        0,
        1,
        0,
        0,
        0,
        0,
        1,
        0,
        -14.878771781921387,
        -4.3660945892333984,
        10.693565368652344,
        1
      ],
      "name": "Box004"
    },
    {
      "mesh": 5,
      "name": "Box004_Material #39_0"
    },
    {
      "children": [
        17
      ],
      "matrix": [
        6.4148740768432617,
        0,
        0,
        0,
        0,
        1,
        0,
        0,
        0,
        0,
        1,
        0,
        14.928280830383301,
        -4.3660945892333984,
        10.693565368652344,
        1
      ],
      "name": "Box005"
    },
    {
      "mesh": 6,
      "name": "Box005_Material #39_0"
    },
    {
      "children": [
        19,
        20,
        21
      ],
      "matrix": [
        -1.9470718393144182e-07,
        1.3234889800848443e-23,
        0.99999999999998113,
        -0,
        8.742277669593877e-08,
        0.99999999999999645,
        1.7021842652479473e-14,
        -0,
        0.99999999999997735,
        -8.7422776695940411e-08,
        1.9470718415348642e-07,
        -0,
        0,
        0,
        5.6589088439941406,
        1
      ],
      "name": "Cylinder002"
    },
    {
      "mesh": 7,
      "name": "Cylinder002_Material #13_0"
    },
    {
      "mesh": 8,
      "name": "Cylinder002_Material #14_0"
    },
    {
      "mesh": 9,
      "name": "Cylinder002_Material #15_0"
    }
  ],
  "scene": 0,
  "scenes": [
    {
      "name": "OSG_Scene",
      "nodes": [
        0
      ]
    }
  ]
}

