{
    "asset" : {
        "generator" : "Khronos glTF Blender I/O v1.1.45",
        "version" : "2.0"
    },
    "scene" : 0,
    "scenes" : [
        {
            "name" : "Scene",
            "nodes" : [
                0,
                1,
                16
            ]
        }
    ],
    "nodes" : [
        {
            "name" : "Light",
            "rotation" : [
                0.16907575726509094,
                0.7558803558349609,
                -0.27217137813568115,
                0.570947527885437
            ],
            "translation" : [
                4.076245307922363,
                5.903861999511719,
                -1.0054539442062378
            ]
        },
        {
            "name" : "Camera",
            "rotation" : [
                0.483536034822464,
                0.33687159419059753,
                -0.20870360732078552,
                0.7804827094078064
            ],
            "translation" : [
                7.358891487121582,
                4.958309173583984,
                6.925790786743164
            ]
        },
        {
            "mesh" : 0,
            "name" : "Back_Cam_Chrome"
        },
        {
            "mesh" : 1,
            "name" : "Back_Cam_Metal"
        },
        {
            "mesh" : 2,
            "name" : "Back_Cover"
        },
        {
            "children" : [
                2,
                3,
                4
            ],
            "name" : "Back"
        },
        {
            "mesh" : 3,
            "name" : "Bezel"
        },
        {
            "children" : [
                6
            ],
            "name" : "Front"
        },
        {
            "mesh" : 4,
            "name" : "Antenna"
        },
        {
            "mesh" : 5,
            "name" : "BlackInside"
        },
        {
            "mesh" : 6,
            "name" : "BlackInside1"
        },
        {
            "mesh" : 7,
            "name" : "Case"
        },
        {
            "mesh" : 8,
            "name" : "SideKey_Power"
        },
        {
            "mesh" : 9,
            "name" : "SideKey_Vol"
        },
        {
            "mesh" : 10,
            "name" : "Simstray"
        },
        {
            "children" : [
                8,
                9,
                10,
                11,
                12,
                13,
                14
            ],
            "name" : "Side"
        },
        {
            "children" : [
                5,
                7,
                15
            ],
            "name" : "S20",
            "rotation" : [
                0.7071068286895752,
                0,
                0,
                0.7071067094802856
            ],
            "scale" : [
                0.009999999776482582,
                0.009999999776482582,
                0.009999999776482582
            ]
        }
    ],
    "materials" : [
        {
            "doubleSided" : true,
            "emissiveFactor" : [
                0,
                0,
                0
            ],
            "name" : "back_mtl",
            "pbrMetallicRoughness" : {
                "baseColorTexture" : {
                    "index" : 0,
                    "texCoord" : 0
                },
                "metallicFactor" : 0.5,
                "roughnessFactor" : 0
            }
        },
        {
            "doubleSided" : true,
            "emissiveFactor" : [
                0,
                0,
                0
            ],
            "name" : "back_cover_mtl",
            "pbrMetallicRoughness" : {
                "baseColorFactor" : [
                    0,
                    0,
                    0,
                    1
                ],
                "metallicFactor" : 0.5,
                "roughnessFactor" : 0.7487671971321106
            }
        },
        {
            "doubleSided" : true,
            "emissiveFactor" : [
                0,
                0,
                0
            ],
            "name" : "Material.002",
            "pbrMetallicRoughness" : {
                "baseColorTexture" : {
                    "index" : 1,
                    "texCoord" : 0
                },
                "metallicFactor" : 0,
                "roughnessFactor" : 0
            }
        },
        {
            "doubleSided" : true,
            "emissiveFactor" : [
                0,
                0,
                0
            ],
            "name" : "side_mtl",
            "normalTexture" : {
                "index" : 2,
                "texCoord" : 0
            },
            "pbrMetallicRoughness" : {
                "baseColorTexture" : {
                    "index" : 3,
                    "texCoord" : 0
                },
                "metallicFactor" : 0.5,
                "roughnessFactor" : 0.7487671971321106
            }
        }
    ],
    "meshes" : [
        {
            "name" : "Mesh.009",
            "primitives" : [
                {
                    "attributes" : {
                        "POSITION" : 0,
                        "NORMAL" : 1,
                        "TEXCOORD_0" : 2
                    },
                    "indices" : 3,
                    "material" : 0
                }
            ]
        },
        {
            "name" : "Mesh.010",
            "primitives" : [
                {
                    "attributes" : {
                        "POSITION" : 4,
                        "NORMAL" : 5,
                        "TEXCOORD_0" : 6
                    },
                    "indices" : 7,
                    "material" : 0
                }
            ]
        },
        {
            "name" : "Mesh.008",
            "primitives" : [
                {
                    "attributes" : {
                        "POSITION" : 8,
                        "NORMAL" : 9,
                        "TEXCOORD_0" : 10
                    },
                    "indices" : 11,
                    "material" : 1
                }
            ]
        },
        {
            "name" : "Mesh",
            "primitives" : [
                {
                    "attributes" : {
                        "POSITION" : 12,
                        "NORMAL" : 13,
                        "TEXCOORD_0" : 14
                    },
                    "indices" : 15,
                    "material" : 2
                }
            ]
        },
        {
            "name" : "Mesh.007",
            "primitives" : [
                {
                    "attributes" : {
                        "POSITION" : 16,
                        "NORMAL" : 17,
                        "TEXCOORD_0" : 18
                    },
                    "indices" : 19,
                    "material" : 3
                }
            ]
        },
        {
            "name" : "Mesh.005",
            "primitives" : [
                {
                    "attributes" : {
                        "POSITION" : 20,
                        "NORMAL" : 21,
                        "TEXCOORD_0" : 22
                    },
                    "indices" : 23,
                    "material" : 3
                }
            ]
        },
        {
            "name" : "Mesh.006",
            "primitives" : [
                {
                    "attributes" : {
                        "POSITION" : 24,
                        "NORMAL" : 25,
                        "TEXCOORD_0" : 26
                    },
                    "indices" : 27,
                    "material" : 3
                }
            ]
        },
        {
            "name" : "Mesh.004",
            "primitives" : [
                {
                    "attributes" : {
                        "POSITION" : 28,
                        "NORMAL" : 29,
                        "TEXCOORD_0" : 30
                    },
                    "indices" : 31,
                    "material" : 3
                }
            ]
        },
        {
            "name" : "Mesh.002",
            "primitives" : [
                {
                    "attributes" : {
                        "POSITION" : 32,
                        "NORMAL" : 33,
                        "TEXCOORD_0" : 34
                    },
                    "indices" : 35,
                    "material" : 3
                }
            ]
        },
        {
            "name" : "Mesh.001",
            "primitives" : [
                {
                    "attributes" : {
                        "POSITION" : 36,
                        "NORMAL" : 37,
                        "TEXCOORD_0" : 38
                    },
                    "indices" : 39,
                    "material" : 3
                }
            ]
        },
        {
            "name" : "Mesh.003",
            "primitives" : [
                {
                    "attributes" : {
                        "POSITION" : 40,
                        "NORMAL" : 41,
                        "TEXCOORD_0" : 42
                    },
                    "indices" : 43,
                    "material" : 3
                }
            ]
        }
    ],
    "textures" : [
        {
            "source" : 0
        },
        {
            "source" : 1
        },
        {
            "source" : 2
        },
        {
            "source" : 3
        }
    ],
    "images" : [
        {
            "mimeType" : "image/jpeg",
            "name" : "UV_S20_back",
            "uri" : "Texture/UV_S20_back.jpg"
        },
        {
            "mimeType" : "image/jpeg",
            "name" : "UV_S20_front",
            "uri" : "Texture/UV_S20_front.jpg"
        },
        {
            "mimeType" : "image/png",
            "name" : "side_normal",
            "uri" : "Texture/side_normal.png"
        },
        {
            "mimeType" : "image/jpeg",
            "name" : "UV_S20_side",
            "uri" : "Texture/UV_S20_side.jpg"
        }
    ],
    "accessors" : [
        {
            "bufferView" : 0,
            "componentType" : 5126,
            "count" : 360,
            "max" : [
                3.0995399951934814,
                -0.5415976643562317,
                -11.192493438720703
            ],
            "min" : [
                -0.24689427018165588,
                -0.7004827260971069,
                -15.925638198852539
            ],
            "type" : "VEC3"
        },
        {
            "bufferView" : 1,
            "componentType" : 5126,
            "count" : 360,
            "type" : "VEC3"
        },
        {
            "bufferView" : 2,
            "componentType" : 5126,
            "count" : 360,
            "type" : "VEC2"
        },
        {
            "bufferView" : 3,
            "componentType" : 5123,
            "count" : 1290,
            "type" : "SCALAR"
        },
        {
            "bufferView" : 4,
            "componentType" : 5126,
            "count" : 576,
            "max" : [
                3.004817247390747,
                -0.6998918056488037,
                -11.287957191467285
            ],
            "min" : [
                -0.14417463541030884,
                -0.8484973311424255,
                -15.83017349243164
            ],
            "type" : "VEC3"
        },
        {
            "bufferView" : 5,
            "componentType" : 5126,
            "count" : 576,
            "type" : "VEC3"
        },
        {
            "bufferView" : 6,
            "componentType" : 5126,
            "count" : 576,
            "type" : "VEC2"
        },
        {
            "bufferView" : 7,
            "componentType" : 5123,
            "count" : 2013,
            "type" : "SCALAR"
        },
        {
            "bufferView" : 8,
            "componentType" : 5126,
            "count" : 366,
            "max" : [
                3.7883832454681396,
                -0.16682028770446777,
                -0.14008286595344543
            ],
            "min" : [
                -3.7847187519073486,
                -0.6301674246788025,
                -16.505918502807617
            ],
            "type" : "VEC3"
        },
        {
            "bufferView" : 9,
            "componentType" : 5126,
            "count" : 366,
            "type" : "VEC3"
        },
        {
            "bufferView" : 10,
            "componentType" : 5126,
            "count" : 366,
            "type" : "VEC2"
        },
        {
            "bufferView" : 11,
            "componentType" : 5123,
            "count" : 1542,
            "type" : "SCALAR"
        },
        {
            "bufferView" : 12,
            "componentType" : 5126,
            "count" : 448,
            "max" : [
                3.732309579849243,
                0.2838805317878723,
                -0.1530221849679947
            ],
            "min" : [
                -3.729574680328369,
                0.10717417299747467,
                -16.492450714111328
            ],
            "type" : "VEC3"
        },
        {
            "bufferView" : 13,
            "componentType" : 5126,
            "count" : 448,
            "type" : "VEC3"
        },
        {
            "bufferView" : 14,
            "componentType" : 5126,
            "count" : 448,
            "type" : "VEC2"
        },
        {
            "bufferView" : 15,
            "componentType" : 5123,
            "count" : 1416,
            "type" : "SCALAR"
        },
        {
            "bufferView" : 16,
            "componentType" : 5126,
            "count" : 242,
            "max" : [
                3.7996904850006104,
                0.25002729892730713,
                0.02211284637451172
            ],
            "min" : [
                -3.796043634414673,
                -0.49626874923706055,
                -16.66796875
            ],
            "type" : "VEC3"
        },
        {
            "bufferView" : 17,
            "componentType" : 5126,
            "count" : 242,
            "type" : "VEC3"
        },
        {
            "bufferView" : 18,
            "componentType" : 5126,
            "count" : 242,
            "type" : "VEC2"
        },
        {
            "bufferView" : 19,
            "componentType" : 5123,
            "count" : 552,
            "type" : "SCALAR"
        },
        {
            "bufferView" : 20,
            "componentType" : 5126,
            "count" : 74,
            "max" : [
                3.728271722793579,
                -0.09502941370010376,
                -0.16591095924377441
            ],
            "min" : [
                -3.7246181964874268,
                -0.49615317583084106,
                -16.48008155822754
            ],
            "type" : "VEC3"
        },
        {
            "bufferView" : 21,
            "componentType" : 5126,
            "count" : 74,
            "type" : "VEC3"
        },
        {
            "bufferView" : 22,
            "componentType" : 5126,
            "count" : 74,
            "type" : "VEC2"
        },
        {
            "bufferView" : 23,
            "componentType" : 5123,
            "count" : 198,
            "type" : "SCALAR"
        },
        {
            "bufferView" : 24,
            "componentType" : 5126,
            "count" : 66,
            "max" : [
                3.728271722793579,
                0.27135980129241943,
                -0.16833209991455078
            ],
            "min" : [
                -3.724618673324585,
                0.07758563756942749,
                -16.54370880126953
            ],
            "type" : "VEC3"
        },
        {
            "bufferView" : 25,
            "componentType" : 5126,
            "count" : 66,
            "type" : "VEC3"
        },
        {
            "bufferView" : 26,
            "componentType" : 5126,
            "count" : 66,
            "type" : "VEC2"
        },
        {
            "bufferView" : 27,
            "componentType" : 5123,
            "count" : 168,
            "type" : "SCALAR"
        },
        {
            "bufferView" : 28,
            "componentType" : 5126,
            "count" : 1316,
            "max" : [
                3.7997608184814453,
                0.25270724296569824,
                0.0221099853515625
            ],
            "min" : [
                -3.7961158752441406,
                -0.49626874923706055,
                -16.667991638183594
            ],
            "type" : "VEC3"
        },
        {
            "bufferView" : 29,
            "componentType" : 5126,
            "count" : 1316,
            "type" : "VEC3"
        },
        {
            "bufferView" : 30,
            "componentType" : 5126,
            "count" : 1316,
            "type" : "VEC2"
        },
        {
            "bufferView" : 31,
            "componentType" : 5123,
            "count" : 5028,
            "type" : "SCALAR"
        },
        {
            "bufferView" : 32,
            "componentType" : 5126,
            "count" : 1154,
            "max" : [
                3.8498332500457764,
                -0.01611471176147461,
                -9.507955551147461
            ],
            "min" : [
                3.76377272605896,
                -0.14611473679542542,
                -10.491689682006836
            ],
            "type" : "VEC3"
        },
        {
            "bufferView" : 33,
            "componentType" : 5126,
            "count" : 1154,
            "type" : "VEC3"
        },
        {
            "bufferView" : 34,
            "componentType" : 5126,
            "count" : 1154,
            "type" : "VEC2"
        },
        {
            "bufferView" : 35,
            "componentType" : 5123,
            "count" : 3360,
            "type" : "SCALAR"
        },
        {
            "bufferView" : 36,
            "componentType" : 5126,
            "count" : 1069,
            "max" : [
                3.8498332500457764,
                -0.01611471176147461,
                -11.5
            ],
            "min" : [
                3.771772623062134,
                -0.14611473679542542,
                -13.5
            ],
            "type" : "VEC3"
        },
        {
            "bufferView" : 37,
            "componentType" : 5126,
            "count" : 1069,
            "type" : "VEC3"
        },
        {
            "bufferView" : 38,
            "componentType" : 5126,
            "count" : 1069,
            "type" : "VEC2"
        },
        {
            "bufferView" : 39,
            "componentType" : 5123,
            "count" : 3099,
            "type" : "SCALAR"
        },
        {
            "bufferView" : 40,
            "componentType" : 5126,
            "count" : 147,
            "max" : [
                -1.1920045614242554,
                0.09306716918945312,
                -16.548725128173828
            ],
            "min" : [
                -3.0714738368988037,
                -0.14843511581420898,
                -16.66212272644043
            ],
            "type" : "VEC3"
        },
        {
            "bufferView" : 41,
            "componentType" : 5126,
            "count" : 147,
            "type" : "VEC3"
        },
        {
            "bufferView" : 42,
            "componentType" : 5126,
            "count" : 147,
            "type" : "VEC2"
        },
        {
            "bufferView" : 43,
            "componentType" : 5123,
            "count" : 246,
            "type" : "SCALAR"
        }
    ],
    "bufferViews" : [
        {
            "buffer" : 0,
            "byteLength" : 4320,
            "byteOffset" : 0
        },
        {
            "buffer" : 0,
            "byteLength" : 4320,
            "byteOffset" : 4320
        },
        {
            "buffer" : 0,
            "byteLength" : 2880,
            "byteOffset" : 8640
        },
        {
            "buffer" : 0,
            "byteLength" : 2580,
            "byteOffset" : 11520
        },
        {
            "buffer" : 0,
            "byteLength" : 6912,
            "byteOffset" : 14100
        },
        {
            "buffer" : 0,
            "byteLength" : 6912,
            "byteOffset" : 21012
        },
        {
            "buffer" : 0,
            "byteLength" : 4608,
            "byteOffset" : 27924
        },
        {
            "buffer" : 0,
            "byteLength" : 4026,
            "byteOffset" : 32532
        },
        {
            "buffer" : 0,
            "byteLength" : 4392,
            "byteOffset" : 36560
        },
        {
            "buffer" : 0,
            "byteLength" : 4392,
            "byteOffset" : 40952
        },
        {
            "buffer" : 0,
            "byteLength" : 2928,
            "byteOffset" : 45344
        },
        {
            "buffer" : 0,
            "byteLength" : 3084,
            "byteOffset" : 48272
        },
        {
            "buffer" : 0,
            "byteLength" : 5376,
            "byteOffset" : 51356
        },
        {
            "buffer" : 0,
            "byteLength" : 5376,
            "byteOffset" : 56732
        },
        {
            "buffer" : 0,
            "byteLength" : 3584,
            "byteOffset" : 62108
        },
        {
            "buffer" : 0,
            "byteLength" : 2832,
            "byteOffset" : 65692
        },
        {
            "buffer" : 0,
            "byteLength" : 2904,
            "byteOffset" : 68524
        },
        {
            "buffer" : 0,
            "byteLength" : 2904,
            "byteOffset" : 71428
        },
        {
            "buffer" : 0,
            "byteLength" : 1936,
            "byteOffset" : 74332
        },
        {
            "buffer" : 0,
            "byteLength" : 1104,
            "byteOffset" : 76268
        },
        {
            "buffer" : 0,
            "byteLength" : 888,
            "byteOffset" : 77372
        },
        {
            "buffer" : 0,
            "byteLength" : 888,
            "byteOffset" : 78260
        },
        {
            "buffer" : 0,
            "byteLength" : 592,
            "byteOffset" : 79148
        },
        {
            "buffer" : 0,
            "byteLength" : 396,
            "byteOffset" : 79740
        },
        {
            "buffer" : 0,
            "byteLength" : 792,
            "byteOffset" : 80136
        },
        {
            "buffer" : 0,
            "byteLength" : 792,
            "byteOffset" : 80928
        },
        {
            "buffer" : 0,
            "byteLength" : 528,
            "byteOffset" : 81720
        },
        {
            "buffer" : 0,
            "byteLength" : 336,
            "byteOffset" : 82248
        },
        {
            "buffer" : 0,
            "byteLength" : 15792,
            "byteOffset" : 82584
        },
        {
            "buffer" : 0,
            "byteLength" : 15792,
            "byteOffset" : 98376
        },
        {
            "buffer" : 0,
            "byteLength" : 10528,
            "byteOffset" : 114168
        },
        {
            "buffer" : 0,
            "byteLength" : 10056,
            "byteOffset" : 124696
        },
        {
            "buffer" : 0,
            "byteLength" : 13848,
            "byteOffset" : 134752
        },
        {
            "buffer" : 0,
            "byteLength" : 13848,
            "byteOffset" : 148600
        },
        {
            "buffer" : 0,
            "byteLength" : 9232,
            "byteOffset" : 162448
        },
        {
            "buffer" : 0,
            "byteLength" : 6720,
            "byteOffset" : 171680
        },
        {
            "buffer" : 0,
            "byteLength" : 12828,
            "byteOffset" : 178400
        },
        {
            "buffer" : 0,
            "byteLength" : 12828,
            "byteOffset" : 191228
        },
        {
            "buffer" : 0,
            "byteLength" : 8552,
            "byteOffset" : 204056
        },
        {
            "buffer" : 0,
            "byteLength" : 6198,
            "byteOffset" : 212608
        },
        {
            "buffer" : 0,
            "byteLength" : 1764,
            "byteOffset" : 218808
        },
        {
            "buffer" : 0,
            "byteLength" : 1764,
            "byteOffset" : 220572
        },
        {
            "buffer" : 0,
            "byteLength" : 1176,
            "byteOffset" : 222336
        },
        {
            "buffer" : 0,
            "byteLength" : 492,
            "byteOffset" : 223512
        }
    ],
    "buffers" : [
        {
            "byteLength" : 224004,
            "uri" : "scene.bin"
        }
    ]
}
