{
    "asset" : {
        "generator" : "Khronos glTF Blender I/O v0.9.36",
        "version" : "2.0"
    },
    "scene" : 0,
    "scenes" : [
        {
            "name" : "Scene",
            "nodes" : [
                0,
                1,
                2,
                3,
                4,
                5,
                6,
                7,
                8
            ]
        }
    ],
    "nodes" : [
        {
            "mesh" : 0,
            "name" : "s20_plus_new_modeling_Body",
            "rotation" : [
                0.7071068286895752,
                0,
                0,
                0.7071067094802856
            ]
        },
        {
            "mesh" : 1,
            "name" : "s20_plus_new_modeling_glass",
            "rotation" : [
                0.7071068286895752,
                0,
                0,
                0.7071067094802856
            ]
        },
        {
            "mesh" : 2,
            "name" : "Interact_BackCamera_02",
            "rotation" : [
                0.7071067690849304,
                0,
                0,
                0.7071067690849304
            ],
            "scale" : [
                9.679112434387207,
                9.679112434387207,
                9.679112434387207
            ],
            "translation" : [
                18.715124130249023,
                58.55412292480469,
                -5.898631572723389
            ]
        },
        {
            "name" : "Sun",
            "rotation" : [
                -0.638365626335144,
                0,
                0,
                0.7697333097457886
            ],
            "translation" : [
                0,
                103.67510223388672,
                0
            ]
        },
        {
            "mesh" : 3,
            "name" : "Interact_FrontCamera_02",
            "rotation" : [
                0.7071067690849304,
                0,
                0,
                0.7071067690849304
            ],
            "scale" : [
                9.679112434387207,
                9.679112434387207,
                9.679112434387207
            ],
            "translation" : [
                0.6478481292724609,
                75.46980285644531,
                4.489749908447266
            ]
        },
        {
            "mesh" : 4,
            "name" : "Interact_Screen_02",
            "rotation" : [
                0.7071067690849304,
                0,
                0,
                0.7071067690849304
            ],
            "scale" : [
                9.679112434387207,
                9.679112434387207,
                9.679112434387207
            ],
            "translation" : [
                0.049072265625,
                1.2433700561523438,
                6.3750200271606445
            ]
        },
        {
            "mesh" : 5,
            "name" : "Interact_FrontCamera_01",
            "scale" : [
                17.390663146972656,
                17.390663146972656,
                1.367489218711853
            ],
            "translation" : [
                0.5946770906448364,
                75.44044494628906,
                4.811513900756836
            ]
        },
        {
            "mesh" : 6,
            "name" : "Interact_BackCamera_01",
            "scale" : [
                17.131744384765625,
                17.131744384765625,
                1.4712992906570435
            ],
            "translation" : [
                18.30616569519043,
                59.180885314941406,
                -6.186293125152588
            ]
        },
        {
            "mesh" : 7,
            "name" : "Interact_Screen_01",
            "scale" : [
                18.079137802124023,
                18.079137802124023,
                1.9354768991470337
            ],
            "translation" : [
                -0.060411930084228516,
                1.5154266357421875,
                6.600265979766846
            ]
        }
    ],
    "animations" : [
        {
            "channels" : [
                {
                    "sampler" : 0,
                    "target" : {
                        "node" : 2,
                        "path" : "rotation"
                    }
                },
                {
                    "sampler" : 1,
                    "target" : {
                        "node" : 2,
                        "path" : "scale"
                    }
                }
            ],
            "name" : "PlaneAction",
            "samplers" : [
                {
                    "input" : 28,
                    "interpolation" : "CUBICSPLINE",
                    "output" : 29
                },
                {
                    "input" : 28,
                    "interpolation" : "CUBICSPLINE",
                    "output" : 30
                }
            ]
        },
        {
            "channels" : [
                {
                    "sampler" : 0,
                    "target" : {
                        "node" : 4,
                        "path" : "rotation"
                    }
                },
                {
                    "sampler" : 1,
                    "target" : {
                        "node" : 4,
                        "path" : "scale"
                    }
                }
            ],
            "name" : "PlaneAction.001",
            "samplers" : [
                {
                    "input" : 28,
                    "interpolation" : "CUBICSPLINE",
                    "output" : 31
                },
                {
                    "input" : 28,
                    "interpolation" : "CUBICSPLINE",
                    "output" : 32
                }
            ]
        },
        {
            "channels" : [
                {
                    "sampler" : 0,
                    "target" : {
                        "node" : 5,
                        "path" : "rotation"
                    }
                },
                {
                    "sampler" : 1,
                    "target" : {
                        "node" : 5,
                        "path" : "scale"
                    }
                }
            ],
            "name" : "PlaneAction.002",
            "samplers" : [
                {
                    "input" : 28,
                    "interpolation" : "CUBICSPLINE",
                    "output" : 33
                },
                {
                    "input" : 28,
                    "interpolation" : "CUBICSPLINE",
                    "output" : 34
                }
            ]
        }
    ],
    "materials" : [
        {
            "doubleSided" : true,
            "name" : "2",
            "pbrMetallicRoughness" : {
                "baseColorTexture" : {
                    "index" : 0,
                    "texCoord" : 0
                },
                "metallicFactor" : 0.4862385392189026,
                "roughnessFactor" : 0.14220184087753296
            }
        },
        {
            "alphaMode" : "BLEND",
            "doubleSided" : true,
            "name" : "1",
            "pbrMetallicRoughness" : {
                "baseColorFactor" : [
                    1,
                    0.990368664264679,
                    0.8985270857810974,
                    0
                ],
                "metallicFactor" : 0.5045871734619141,
                "roughnessFactor" : 0.2272340953350067
            }
        },
        {
            "alphaMode" : "BLEND",
            "doubleSided" : true,
            "name" : "Material.003",
            "pbrMetallicRoughness" : {
                "baseColorTexture" : {
                    "index" : 1,
                    "texCoord" : 0
                },
                "metallicFactor" : 0,
                "roughnessFactor" : 0.5
            }
        },
        {
            "doubleSided" : true,
            "name" : "Material",
            "pbrMetallicRoughness" : {
                "baseColorFactor" : [
                    0.800000011920929,
                    0.800000011920929,
                    0.800000011920929,
                    1
                ],
                "metallicFactor" : 0,
                "roughnessFactor" : 0.4000000059604645
            }
        }
    ],
    "meshes" : [
        {
            "name" : "s20_plus_new_modeling_Body",
            "primitives" : [
                {
                    "attributes" : {
                        "POSITION" : 0,
                        "NORMAL" : 1,
                        "TEXCOORD_0" : 2
                    },
                    "indices" : 3,
                    "material" : 0
                }
            ]
        },
        {
            "name" : "s20_plus_new_modeling_glass",
            "primitives" : [
                {
                    "attributes" : {
                        "POSITION" : 4,
                        "NORMAL" : 5,
                        "TEXCOORD_0" : 6
                    },
                    "indices" : 7,
                    "material" : 1
                }
            ]
        },
        {
            "name" : "Interact_BackCamera_02",
            "primitives" : [
                {
                    "attributes" : {
                        "POSITION" : 8,
                        "NORMAL" : 9,
                        "TEXCOORD_0" : 10
                    },
                    "indices" : 11,
                    "material" : 2
                }
            ]
        },
        {
            "name" : "Interact_FrontCamera_02",
            "primitives" : [
                {
                    "attributes" : {
                        "POSITION" : 12,
                        "NORMAL" : 13,
                        "TEXCOORD_0" : 14
                    },
                    "indices" : 11,
                    "material" : 2
                }
            ]
        },
        {
            "name" : "Interact_Screen_02",
            "primitives" : [
                {
                    "attributes" : {
                        "POSITION" : 15,
                        "NORMAL" : 16,
                        "TEXCOORD_0" : 17
                    },
                    "indices" : 11,
                    "material" : 2
                }
            ]
        },
        {
            "name" : "Interact_FrontCamera_01",
            "primitives" : [
                {
                    "attributes" : {
                        "POSITION" : 18,
                        "NORMAL" : 19,
                        "TEXCOORD_0" : 20
                    },
                    "indices" : 21,
                    "material" : 3
                }
            ]
        },
        {
            "name" : "Interact_BackCamera_01",
            "primitives" : [
                {
                    "attributes" : {
                        "POSITION" : 22,
                        "NORMAL" : 23,
                        "TEXCOORD_0" : 24
                    },
                    "indices" : 21,
                    "material" : 3
                }
            ]
        },
        {
            "name" : "Interact_Screen_01",
            "primitives" : [
                {
                    "attributes" : {
                        "POSITION" : 25,
                        "NORMAL" : 26,
                        "TEXCOORD_0" : 27
                    },
                    "indices" : 21,
                    "material" : 3
                }
            ]
        }
    ],
    "textures" : [
        {
            "source" : 0
        },
        {
            "source" : 1
        }
    ],
    "images" : [
        {
            "bufferView" : 4,
            "mimeType" : "image/jpeg",
            "name" : "98349479_1585058004980314_4322052450690269184_n"
        },
        {
            "bufferView" : 13,
            "mimeType" : "image/png",
            "name" : "TargetCircle"
        }
    ],
    "accessors" : [
        {
            "bufferView" : 0,
            "componentType" : 5126,
            "count" : 22242,
            "max" : [
                37.099334716796875,
                4.279111385345459,
                81.04689025878906
            ],
            "min" : [
                -37.102752685546875,
                -4.41398811340332,
                -81.0474624633789
            ],
            "type" : "VEC3"
        },
        {
            "bufferView" : 1,
            "componentType" : 5126,
            "count" : 22242,
            "type" : "VEC3"
        },
        {
            "bufferView" : 2,
            "componentType" : 5126,
            "count" : 22242,
            "type" : "VEC2"
        },
        {
            "bufferView" : 3,
            "componentType" : 5123,
            "count" : 118338,
            "type" : "SCALAR"
        },
        {
            "bufferView" : 5,
            "componentType" : 5126,
            "count" : 6706,
            "max" : [
                36.703556060791016,
                4.4797258377075195,
                80.060302734375
            ],
            "min" : [
                -37.11154556274414,
                -4.458889007568359,
                -80.060302734375
            ],
            "type" : "VEC3"
        },
        {
            "bufferView" : 6,
            "componentType" : 5126,
            "count" : 6706,
            "type" : "VEC3"
        },
        {
            "bufferView" : 7,
            "componentType" : 5126,
            "count" : 6706,
            "type" : "VEC2"
        },
        {
            "bufferView" : 8,
            "componentType" : 5123,
            "count" : 38748,
            "type" : "SCALAR"
        },
        {
            "bufferView" : 9,
            "componentType" : 5126,
            "count" : 4,
            "max" : [
                1,
                0,
                1
            ],
            "min" : [
                -1,
                0,
                -1
            ],
            "type" : "VEC3"
        },
        {
            "bufferView" : 10,
            "componentType" : 5126,
            "count" : 4,
            "type" : "VEC3"
        },
        {
            "bufferView" : 11,
            "componentType" : 5126,
            "count" : 4,
            "type" : "VEC2"
        },
        {
            "bufferView" : 12,
            "componentType" : 5123,
            "count" : 6,
            "type" : "SCALAR"
        },
        {
            "bufferView" : 14,
            "componentType" : 5126,
            "count" : 4,
            "max" : [
                1,
                0,
                1
            ],
            "min" : [
                -1,
                0,
                -1
            ],
            "type" : "VEC3"
        },
        {
            "bufferView" : 15,
            "componentType" : 5126,
            "count" : 4,
            "type" : "VEC3"
        },
        {
            "bufferView" : 16,
            "componentType" : 5126,
            "count" : 4,
            "type" : "VEC2"
        },
        {
            "bufferView" : 17,
            "componentType" : 5126,
            "count" : 4,
            "max" : [
                1,
                0,
                1
            ],
            "min" : [
                -1,
                0,
                -1
            ],
            "type" : "VEC3"
        },
        {
            "bufferView" : 18,
            "componentType" : 5126,
            "count" : 4,
            "type" : "VEC3"
        },
        {
            "bufferView" : 19,
            "componentType" : 5126,
            "count" : 4,
            "type" : "VEC2"
        },
        {
            "bufferView" : 20,
            "componentType" : 5126,
            "count" : 24,
            "max" : [
                1,
                1,
                1
            ],
            "min" : [
                -1,
                -1,
                -1
            ],
            "type" : "VEC3"
        },
        {
            "bufferView" : 21,
            "componentType" : 5126,
            "count" : 24,
            "type" : "VEC3"
        },
        {
            "bufferView" : 22,
            "componentType" : 5126,
            "count" : 24,
            "type" : "VEC2"
        },
        {
            "bufferView" : 23,
            "componentType" : 5123,
            "count" : 36,
            "type" : "SCALAR"
        },
        {
            "bufferView" : 24,
            "componentType" : 5126,
            "count" : 24,
            "max" : [
                1,
                1,
                1
            ],
            "min" : [
                -1,
                -1,
                -1
            ],
            "type" : "VEC3"
        },
        {
            "bufferView" : 25,
            "componentType" : 5126,
            "count" : 24,
            "type" : "VEC3"
        },
        {
            "bufferView" : 26,
            "componentType" : 5126,
            "count" : 24,
            "type" : "VEC2"
        },
        {
            "bufferView" : 27,
            "componentType" : 5126,
            "count" : 24,
            "max" : [
                1,
                1,
                1
            ],
            "min" : [
                -1,
                -1,
                -1
            ],
            "type" : "VEC3"
        },
        {
            "bufferView" : 28,
            "componentType" : 5126,
            "count" : 24,
            "type" : "VEC3"
        },
        {
            "bufferView" : 29,
            "componentType" : 5126,
            "count" : 24,
            "type" : "VEC2"
        },
        {
            "bufferView" : 30,
            "componentType" : 5126,
            "count" : 9,
            "max" : [
                3.3333333333333335
            ],
            "min" : [
                0.041666666666666664
            ],
            "type" : "SCALAR"
        },
        {
            "bufferView" : 31,
            "componentType" : 5126,
            "count" : 27,
            "type" : "VEC4"
        },
        {
            "bufferView" : 32,
            "componentType" : 5126,
            "count" : 27,
            "type" : "VEC3"
        },
        {
            "bufferView" : 33,
            "componentType" : 5126,
            "count" : 27,
            "type" : "VEC4"
        },
        {
            "bufferView" : 34,
            "componentType" : 5126,
            "count" : 27,
            "type" : "VEC3"
        },
        {
            "bufferView" : 35,
            "componentType" : 5126,
            "count" : 27,
            "type" : "VEC4"
        },
        {
            "bufferView" : 36,
            "componentType" : 5126,
            "count" : 27,
            "type" : "VEC3"
        }
    ],
    "bufferViews" : [
        {
            "buffer" : 0,
            "byteLength" : 266904,
            "byteOffset" : 0
        },
        {
            "buffer" : 0,
            "byteLength" : 266904,
            "byteOffset" : 266904
        },
        {
            "buffer" : 0,
            "byteLength" : 177936,
            "byteOffset" : 533808
        },
        {
            "buffer" : 0,
            "byteLength" : 236676,
            "byteOffset" : 711744
        },
        {
            "buffer" : 0,
            "byteLength" : 160433,
            "byteOffset" : 948420
        },
        {
            "buffer" : 0,
            "byteLength" : 80472,
            "byteOffset" : 1108856
        },
        {
            "buffer" : 0,
            "byteLength" : 80472,
            "byteOffset" : 1189328
        },
        {
            "buffer" : 0,
            "byteLength" : 53648,
            "byteOffset" : 1269800
        },
        {
            "buffer" : 0,
            "byteLength" : 77496,
            "byteOffset" : 1323448
        },
        {
            "buffer" : 0,
            "byteLength" : 48,
            "byteOffset" : 1400944
        },
        {
            "buffer" : 0,
            "byteLength" : 48,
            "byteOffset" : 1400992
        },
        {
            "buffer" : 0,
            "byteLength" : 32,
            "byteOffset" : 1401040
        },
        {
            "buffer" : 0,
            "byteLength" : 12,
            "byteOffset" : 1401072
        },
        {
            "buffer" : 0,
            "byteLength" : 15462,
            "byteOffset" : 1401084
        },
        {
            "buffer" : 0,
            "byteLength" : 48,
            "byteOffset" : 1416548
        },
        {
            "buffer" : 0,
            "byteLength" : 48,
            "byteOffset" : 1416596
        },
        {
            "buffer" : 0,
            "byteLength" : 32,
            "byteOffset" : 1416644
        },
        {
            "buffer" : 0,
            "byteLength" : 48,
            "byteOffset" : 1416676
        },
        {
            "buffer" : 0,
            "byteLength" : 48,
            "byteOffset" : 1416724
        },
        {
            "buffer" : 0,
            "byteLength" : 32,
            "byteOffset" : 1416772
        },
        {
            "buffer" : 0,
            "byteLength" : 288,
            "byteOffset" : 1416804
        },
        {
            "buffer" : 0,
            "byteLength" : 288,
            "byteOffset" : 1417092
        },
        {
            "buffer" : 0,
            "byteLength" : 192,
            "byteOffset" : 1417380
        },
        {
            "buffer" : 0,
            "byteLength" : 72,
            "byteOffset" : 1417572
        },
        {
            "buffer" : 0,
            "byteLength" : 288,
            "byteOffset" : 1417644
        },
        {
            "buffer" : 0,
            "byteLength" : 288,
            "byteOffset" : 1417932
        },
        {
            "buffer" : 0,
            "byteLength" : 192,
            "byteOffset" : 1418220
        },
        {
            "buffer" : 0,
            "byteLength" : 288,
            "byteOffset" : 1418412
        },
        {
            "buffer" : 0,
            "byteLength" : 288,
            "byteOffset" : 1418700
        },
        {
            "buffer" : 0,
            "byteLength" : 192,
            "byteOffset" : 1418988
        },
        {
            "buffer" : 0,
            "byteLength" : 36,
            "byteOffset" : 1419180
        },
        {
            "buffer" : 0,
            "byteLength" : 432,
            "byteOffset" : 1419216
        },
        {
            "buffer" : 0,
            "byteLength" : 324,
            "byteOffset" : 1419648
        },
        {
            "buffer" : 0,
            "byteLength" : 432,
            "byteOffset" : 1419972
        },
        {
            "buffer" : 0,
            "byteLength" : 324,
            "byteOffset" : 1420404
        },
        {
            "buffer" : 0,
            "byteLength" : 432,
            "byteOffset" : 1420728
        },
        {
            "buffer" : 0,
            "byteLength" : 324,
            "byteOffset" : 1421160
        }
    ],
    "buffers" : [
        {
            "byteLength" : 1421484,
            "uri" : "data:application/octet-stream;base64,"
        }
    ]
}
