{
    "asset" : {
        "generator" : "Khronos glTF Blender I/O v1.1.45",
        "version" : "2.0"
    },
    "scene" : 0,
    "scenes" : [
        {
            "name" : "Scene",
            "nodes" : [
                0,
                1,
                6
            ]
        }
    ],
    "nodes" : [
        {
            "name" : "Light",
            "rotation" : [
                0.16907575726509094,
                0.7558803558349609,
                -0.27217137813568115,
                0.570947527885437
            ],
            "translation" : [
                4.076245307922363,
                5.903861999511719,
                -1.0054539442062378
            ]
        },
        {
            "name" : "Camera",
            "rotation" : [
                0.483536034822464,
                0.33687159419059753,
                -0.20870360732078552,
                0.7804827094078064
            ],
            "translation" : [
                7.358891487121582,
                4.958309173583984,
                6.925790786743164
            ]
        },
        {
            "mesh" : 0,
            "name" : "Object_3",
            "translation" : [
                31.956039428710938,
                -6.297500133514404,
                -28.860239028930664
            ]
        },
        {
            "mesh" : 1,
            "name" : "Object_3.001",
            "translation" : [
                31.956039428710938,
                -6.297500133514404,
                -28.860239028930664
            ]
        },
        {
            "children" : [
                2,
                3
            ],
            "name" : "amazon-wind.obj.cleaner"
        },
        {
            "children" : [
                4
            ],
            "name" : "RootNode (model correction matrix)"
        },
        {
            "children" : [
                5
            ],
            "name" : "RootNode (gltf orientation matrix)",
            "scale" : [
                0.07465243339538574,
                0.07465244829654694,
                0.07465244829654694
            ]
        }
    ],
    "materials" : [
        {
            "doubleSided" : true,
            "emissiveFactor" : [
                0,
                0,
                0
            ],
            "name" : "amazon-wind",
            "pbrMetallicRoughness" : {
                "baseColorTexture" : {
                    "index" : 0,
                    "texCoord" : 0
                },
                "metallicFactor" : 0,
                "roughnessFactor" : 0.6000000238418579
            }
        }
    ],
    "meshes" : [
        {
            "name" : "Mesh_0",
            "primitives" : [
                {
                    "attributes" : {
                        "POSITION" : 0,
                        "NORMAL" : 1,
                        "TEXCOORD_0" : 2
                    },
                    "indices" : 3,
                    "material" : 0
                }
            ]
        },
        {
            "name" : "Mesh_0.001",
            "primitives" : [
                {
                    "attributes" : {
                        "POSITION" : 4,
                        "NORMAL" : 5,
                        "TEXCOORD_0" : 6
                    },
                    "indices" : 7,
                    "material" : 0
                }
            ]
        }
    ],
    "textures" : [
        {
            "source" : 0
        }
    ],
    "images" : [
        {
            "mimeType" : "image/png",
            "name" : "amazon-wind_baseColor",
            "uri" : "amazon-wind_baseColor.png"
        }
    ],
    "accessors" : [
        {
            "bufferView" : 0,
            "componentType" : 5126,
            "count" : 1365,
            "max" : [
                23.326171875,
                116.142578125,
                33.697265625
            ],
            "min" : [
                -25.896484375,
                -0.1181640625,
                -29.9287109375
            ],
            "type" : "VEC3"
        },
        {
            "bufferView" : 1,
            "componentType" : 5126,
            "count" : 1365,
            "type" : "VEC3"
        },
        {
            "bufferView" : 2,
            "componentType" : 5126,
            "count" : 1365,
            "type" : "VEC2"
        },
        {
            "bufferView" : 3,
            "componentType" : 5123,
            "count" : 5022,
            "type" : "SCALAR"
        },
        {
            "bufferView" : 4,
            "componentType" : 5126,
            "count" : 150,
            "max" : [
                8.01171875,
                67.3291015625,
                40.6123046875
            ],
            "min" : [
                -30.4560546875,
                36.2939453125,
                -40.626953125
            ],
            "type" : "VEC3"
        },
        {
            "bufferView" : 5,
            "componentType" : 5126,
            "count" : 150,
            "type" : "VEC3"
        },
        {
            "bufferView" : 6,
            "componentType" : 5126,
            "count" : 150,
            "type" : "VEC2"
        },
        {
            "bufferView" : 7,
            "componentType" : 5123,
            "count" : 495,
            "type" : "SCALAR"
        }
    ],
    "bufferViews" : [
        {
            "buffer" : 0,
            "byteLength" : 16380,
            "byteOffset" : 0
        },
        {
            "buffer" : 0,
            "byteLength" : 16380,
            "byteOffset" : 16380
        },
        {
            "buffer" : 0,
            "byteLength" : 10920,
            "byteOffset" : 32760
        },
        {
            "buffer" : 0,
            "byteLength" : 10044,
            "byteOffset" : 43680
        },
        {
            "buffer" : 0,
            "byteLength" : 1800,
            "byteOffset" : 53724
        },
        {
            "buffer" : 0,
            "byteLength" : 1800,
            "byteOffset" : 55524
        },
        {
            "buffer" : 0,
            "byteLength" : 1200,
            "byteOffset" : 57324
        },
        {
            "buffer" : 0,
            "byteLength" : 990,
            "byteOffset" : 58524
        }
    ],
    "buffers" : [
        {
            "byteLength" : 59516,
            "uri" : "untitled1.bin"
        }
    ]
}
